<svg xmlns="http://www.w3.org/2000/svg" version="1.1" style="shape-rendering:geometricPrecision; text-rendering:geometricPrecision; image-rendering:optimizeQuality; fill-rule:evenodd; clip-rule:evenodd" xmlns:xlink="http://www.w3.org/1999/xlink" viewBox="203.52 157.12 671.52 671.63">
<g/>
<g><path style="opacity: 1; visibility: visible;" fill="#8b2e2e" d="M 521.5,157.5 C 601.476,154.109 674.476,174.609 740.5,219C 809.281,270.53 852.114,338.697 869,423.5C 883.721,508.084 871.388,588.418 832,664.5C 780.874,751.547 705.374,804.38 605.5,823C 525.52,836.772 449.186,825.772 376.5,790C 279.248,735.433 222.748,652.6 207,541.5C 195.137,452.306 213.803,370.306 263,295.5C 317.277,221.409 390.11,176.909 481.5,162C 494.987,160.52 508.32,159.02 521.5,157.5 Z" data-index="1"/></g>
<g><path style="opacity: 1; visibility: visible;" fill="#fefefe" d="M 312.5,331.5 C 463.834,331.333 615.167,331.5 766.5,332C 728.61,446.337 691.11,560.837 654,675.5C 649.581,689.761 644.581,703.761 639,717.5C 605.833,665.833 572.667,614.167 539.5,562.5C 506.469,613.699 473.636,665.033 441,716.5C 440.333,717.833 439.667,717.833 439,716.5C 396.933,588.133 354.767,459.8 312.5,331.5 Z" data-index="2"/></g>
<g><path style="opacity: 1; visibility: visible;" fill="#8b2e2e" d="M 528.5,392.5 C 558.025,389.33 577.525,401.663 587,429.5C 590.677,458.006 579.177,477.172 552.5,487C 530.349,492.168 512.516,485.668 499,467.5C 485.054,441.155 489.554,418.655 512.5,400C 517.804,397.178 523.137,394.678 528.5,392.5 Z" data-index="3"/></g>
</svg>