<svg xmlns="http://www.w3.org/2000/svg" version="1.1" style="shape-rendering:geometricPrecision; text-rendering:geometricPrecision; image-rendering:optimizeQuality; fill-rule:evenodd; clip-rule:evenodd" xmlns:xlink="http://www.w3.org/1999/xlink" viewBox="48.53 396.5 970.97 247">
<g/>
<g><path style="opacity: 1;" fill="#ffffff" d="M 644.5,396.5 C 685.931,477.194 727.265,558.027 768.5,639C 686.165,639.833 603.831,639.667 521.5,638.5C 562.513,557.807 603.513,477.14 644.5,396.5 Z" data-index="1"/></g>
<g><path style="opacity:1" fill="#ffffff" d="M 152.5,402.5 C 183.883,399.58 212.883,406.413 239.5,423C 279.995,454.863 295.829,496.363 287,547.5C 271.396,609.753 231.396,641.753 167,643.5C 117.503,641.96 81.5035,619.293 59,575.5C 45.0875,540.145 45.0875,504.812 59,469.5C 78.4196,430.865 109.586,408.532 152.5,402.5 Z" data-index="2"/></g>
<g><path style="opacity: 1;" fill="#ffffff" d="M 815.5,401.5 C 816.239,401.369 816.906,401.536 817.5,402C 856.761,440.763 896.095,479.263 935.5,517.5C 936.5,480.506 936.833,443.506 936.5,406.5C 964.167,406.5 991.833,406.5 1019.5,406.5C 1019.5,484.167 1019.5,561.833 1019.5,639.5C 951.5,639.5 883.5,639.5 815.5,639.5C 815.5,560.167 815.5,480.833 815.5,401.5 Z" data-index="3"/></g>
<g><path style="opacity:1" fill="#ffffff" d="M 307.5,406.5 C 381.503,406.167 455.503,406.5 529.5,407.5C 507.411,450.01 485.578,492.677 464,535.5C 463.5,570.165 463.333,604.832 463.5,639.5C 435.5,639.5 407.5,639.5 379.5,639.5C 379.667,608.832 379.5,578.165 379,547.5C 354.645,500.79 330.811,453.79 307.5,406.5 Z" data-index="4"/></g>
</svg>