<svg xmlns="http://www.w3.org/2000/svg" version="1.1" style="shape-rendering:geometricPrecision; text-rendering:geometricPrecision; image-rendering:optimizeQuality; fill-rule:evenodd; clip-rule:evenodd" xmlns:xlink="http://www.w3.org/1999/xlink" viewBox="47.68 396.47 971.82 247.25">
<g/>
<g><path style="opacity:1" fill="#fefefe" d="M 643.5,396.5 C 644.376,396.369 645.043,396.702 645.5,397.5C 686.372,478.078 727.372,558.578 768.5,639C 686.165,639.833 603.831,639.667 521.5,638.5C 562.725,558.049 603.392,477.382 643.5,396.5 Z" data-index="1"/></g>
<g><path style="opacity:1" fill="#fefefe" d="M 152.5,402.5 C 183.859,399.758 212.859,406.591 239.5,423C 272.146,447.121 288.812,479.621 289.5,520.5C 289.847,562.634 273.513,596.467 240.5,622C 210.117,641.566 177.117,647.899 141.5,641C 93.5801,629.123 63.4134,599.289 51,551.5C 42.8122,513.611 49.8122,478.944 72,447.5C 93.0965,422.203 119.93,407.203 152.5,402.5 Z" data-index="2"/></g>
<g><path style="opacity:1" fill="#fdfdfd" d="M 815.5,401.5 C 824.943,409.771 834.276,418.271 843.5,427C 873.694,457.528 904.194,487.695 935,517.5C 935.5,480.502 935.667,443.502 935.5,406.5C 963.5,406.5 991.5,406.5 1019.5,406.5C 1019.5,484.167 1019.5,561.833 1019.5,639.5C 951.5,639.5 883.5,639.5 815.5,639.5C 815.5,560.167 815.5,480.833 815.5,401.5 Z" data-index="3"/></g>
<g><path style="opacity:1" fill="#fefefe" d="M 307.5,406.5 C 381.503,406.167 455.503,406.5 529.5,407.5C 507.577,450.087 485.744,492.754 464,535.5C 463.5,570.165 463.333,604.832 463.5,639.5C 435.5,639.5 407.5,639.5 379.5,639.5C 379.667,609.165 379.5,578.832 379,548.5C 354.9,501.3 331.067,453.967 307.5,406.5 Z" data-index="4"/></g>
</svg>