<svg version="1.1" id="Layer_1" xmlns="http://www.w3.org/2000/svg" xmlns:xlink="http://www.w3.org/1999/xlink" x="0px" y="0px"
	 width="100%" viewBox="0 0 508 508" enable-background="new 0 0 508 508" xml:space="preserve">
<path fill="#000000" opacity="1.000000" stroke="none" 
	d="
M333.000000,509.000000 
	C222.000031,509.000000 111.500053,509.000000 1.000059,509.000000 
	C1.000040,339.666748 1.000040,170.333466 1.000020,1.000150 
	C170.333221,1.000100 339.666443,1.000100 508.999756,1.000050 
	C508.999817,170.333176 508.999817,339.666351 508.999908,508.999756 
	C450.500000,509.000000 392.000000,509.000000 333.000000,509.000000 
M146.844711,458.003113 
	C151.889938,458.283112 156.935181,458.563141 162.731201,458.993286 
	C163.491898,458.943756 164.252609,458.894226 165.922150,458.992828 
	C169.608231,458.943451 173.294296,458.894104 177.650391,458.991577 
	C178.103073,458.947693 178.555756,458.903839 179.498093,459.000763 
	C179.658356,458.944550 179.818604,458.888336 180.786407,458.942291 
	C186.966049,457.631409 193.112839,456.131378 199.332489,455.050903 
	C210.675018,453.080475 220.720718,447.831573 230.251724,441.957947 
	C237.700165,437.367737 244.395157,431.389282 250.877045,425.431580 
	C263.464661,413.862000 274.937988,401.307922 280.154053,384.460114 
	C283.900391,372.359161 287.292542,360.148560 290.996887,347.247559 
	C291.371307,345.846802 291.745728,344.446045 292.813568,342.693756 
	C293.825409,338.789215 294.837280,334.884705 296.002014,330.254791 
	C296.039368,329.516052 296.076752,328.777283 296.691772,327.823364 
	C297.020782,326.888428 297.349792,325.953491 297.943939,324.250763 
	C298.850830,320.043213 298.169922,315.331512 301.985931,311.289764 
	C304.421448,308.076233 301.618866,302.475281 306.870728,300.264587 
	C306.977753,302.032990 307.067535,303.516357 307.012909,305.663818 
	C307.057465,306.112396 307.102020,306.560974 307.046448,307.555969 
	C307.347260,307.752228 307.648041,307.948486 307.998260,308.590942 
	C307.998260,308.590942 308.152679,309.012451 308.005737,309.651489 
	C308.321198,310.143982 308.636658,310.636475 308.980072,311.944702 
	C311.637390,321.672546 314.294678,331.400421 316.999054,341.916962 
	C318.621765,347.960968 320.244476,354.004944 322.006714,360.854858 
	C323.322845,365.256226 324.639008,369.657623 325.993805,373.998779 
	C325.993805,373.998779 325.933655,374.037628 326.018890,374.861298 
	C327.648102,381.422119 329.182465,388.008240 330.926239,394.538483 
	C334.610657,408.336182 338.385315,422.109894 342.162994,435.882507 
	C343.697601,441.477478 344.984650,447.177094 347.031555,452.584076 
	C348.901245,457.522949 352.911011,458.369812 355.997284,454.297760 
	C359.542999,449.619690 362.592041,444.385681 364.897156,438.983673 
	C369.908203,427.240204 374.465607,415.294434 378.909943,403.320557 
	C382.373657,393.988678 385.386688,384.489563 388.952698,374.601227 
	C389.006165,374.414612 389.059631,374.227966 389.801361,373.694855 
	C390.810791,370.128723 391.820221,366.562592 393.059357,362.274231 
	C398.070465,347.504242 403.081573,332.734222 408.209839,317.268036 
	C409.488281,314.555878 410.766693,311.843750 412.754608,308.793243 
	C413.968079,304.835785 415.009430,300.815430 416.428253,296.933014 
	C420.205170,286.598145 424.204895,276.344727 427.995514,266.014740 
	C430.063568,260.379028 431.886902,254.653519 433.992249,248.554794 
	C433.992249,248.554794 434.039398,248.109360 434.536224,247.925659 
	C434.630096,247.622787 434.723969,247.319901 435.097046,246.394318 
	C437.068878,241.171616 439.082275,235.964157 441.004669,230.723312 
	C446.282013,216.336105 451.577698,201.955170 456.746338,187.528824 
	C458.683319,182.122513 460.289642,176.597748 462.723938,170.818008 
	C463.096436,169.212097 463.468933,167.606186 463.985992,165.566589 
	C463.985992,165.566589 464.043213,165.113037 464.751007,165.025360 
	C475.225464,174.588348 485.677612,184.176056 496.206940,193.678207 
	C497.329376,194.691162 498.903076,195.204025 500.267426,195.948868 
	C500.838837,194.392044 501.907104,192.836060 501.909760,191.278259 
	C502.001831,137.306595 501.993164,83.334763 501.999207,29.362951 
	C501.999359,28.196869 502.106018,27.019875 501.984253,25.866844 
	C501.676514,22.952692 500.288330,22.073954 497.715637,23.821095 
	C496.517426,24.634851 495.344452,25.486683 494.174927,26.341579 
	C476.803558,39.039509 459.384613,51.673191 442.091888,64.477364 
	C435.861511,69.090607 429.935852,74.115471 423.232391,79.219513 
	C421.471039,80.316742 419.629761,81.304970 417.961029,82.528519 
	C405.044525,91.999054 392.178558,101.538498 379.259064,111.004875 
	C374.463043,114.518974 374.371277,115.602623 380.017242,117.947777 
	C389.950409,122.073700 400.061523,125.771217 410.451416,129.784576 
	C407.885468,136.885635 405.429596,143.634857 403.007294,150.396088 
	C398.699005,162.421524 394.334534,174.427612 390.137268,186.491791 
	C386.379669,197.292343 382.815674,208.160263 378.837189,219.686264 
	C375.885895,227.748428 372.845917,235.779465 370.003784,243.879944 
	C365.566284,256.527466 361.262817,269.222076 356.945343,281.927338 
	C356.945343,281.927338 356.913574,281.886902 356.312012,282.128937 
	C356.259888,282.744873 356.207794,283.360840 356.010834,284.626404 
	C355.962708,285.066162 355.914581,285.505951 355.192169,286.260376 
	C354.756317,288.159668 354.320465,290.058929 353.459656,291.968292 
	C353.459656,291.968292 353.042816,291.884979 352.715271,291.173645 
	C350.755707,283.778503 348.796173,276.383362 346.928040,268.451080 
	C346.631714,268.260193 346.335419,268.069305 346.008148,267.153595 
	C345.957916,266.432739 345.907684,265.711914 345.956421,264.452515 
	C345.659088,264.263580 345.361725,264.074615 345.028229,263.972137 
	C345.028229,263.972137 345.111298,263.928711 345.007202,263.128967 
	C344.032867,259.391785 343.058502,255.654572 342.008636,251.105743 
	C337.791901,236.411697 333.834442,221.635223 329.203339,207.072952 
	C327.781006,202.600510 325.027649,198.281921 321.972290,194.662292 
	C317.537872,189.408920 307.889099,187.185257 301.817596,192.944412 
	C297.861481,196.697006 294.411652,201.466904 292.156036,206.427231 
	C287.583740,216.482117 284.131134,227.039230 279.934631,237.273575 
	C273.871948,252.058960 267.558441,266.741516 261.033020,282.224731 
	C258.555878,271.829315 256.192932,261.913086 254.005219,251.189667 
	C252.342239,244.151901 250.701782,237.108734 249.011551,230.077530 
	C245.638138,216.044479 242.237411,202.018005 239.000519,187.355530 
	C238.689346,186.869400 238.378159,186.383270 238.036530,185.956665 
	C238.036530,185.956665 238.094650,185.923477 238.011856,185.137054 
	C233.832016,176.081970 229.927277,166.886978 225.409988,158.003494 
	C218.030853,143.492004 205.489609,135.650528 189.684158,131.173264 
	C186.231506,130.445526 182.756439,129.005920 179.330093,129.113800 
	C164.843048,129.569931 150.325500,127.683365 135.853714,130.869873 
	C118.963737,134.588821 102.916641,140.177338 88.046555,149.006821 
	C69.915581,159.772537 52.746552,171.861038 40.460011,189.348816 
	C32.983425,199.990448 25.916603,211.080338 20.129490,222.698013 
	C15.474563,232.042831 10.684521,241.535934 9.590536,252.485916 
	C8.618844,262.211823 4.976370,271.688934 4.189535,281.411560 
	C2.527147,301.952972 4.515203,322.466125 10.839064,342.047577 
	C14.862914,354.507202 21.493885,366.124847 26.996874,378.846313 
	C29.334627,382.644684 31.277071,386.769257 34.088894,390.176392 
	C40.826939,398.340912 47.973694,406.168182 55.188641,414.756195 
	C63.076630,420.957489 70.691269,427.555847 78.939079,433.234528 
	C85.545670,437.783234 92.921249,441.214996 100.273537,445.815155 
	C108.493088,448.572266 116.712646,451.329407 124.959312,454.027222 
	C124.959312,454.027222 124.900513,454.055328 125.063461,454.563873 
	C125.369026,454.653412 125.674583,454.742950 126.678833,454.984680 
	C128.158295,454.982666 129.637772,454.980652 131.621277,455.553986 
	C136.414429,456.316010 141.207565,457.078033 146.844711,458.003113 
z"/>
<path fill="#F3FAFF" opacity="1.000000" stroke="none" 
	d="
M26.955799,378.120056 
	C21.493885,366.124847 14.862914,354.507202 10.839064,342.047577 
	C4.515203,322.466125 2.527147,301.952972 4.189535,281.411560 
	C4.976370,271.688934 8.618844,262.211823 9.590536,252.485916 
	C10.684521,241.535934 15.474563,232.042831 20.129490,222.698013 
	C25.916603,211.080338 32.983425,199.990448 40.460011,189.348816 
	C52.746552,171.861038 69.915581,159.772537 88.046555,149.006821 
	C102.916641,140.177338 118.963737,134.588821 135.853714,130.869873 
	C150.325500,127.683365 164.843048,129.569931 179.330093,129.113800 
	C182.756439,129.005920 186.231506,130.445526 189.714661,131.847733 
	C187.335236,133.470398 184.955093,134.505646 182.507446,135.343689 
	C179.745529,136.289322 174.889984,135.843277 176.266663,140.323807 
	C178.285919,146.895660 172.495850,149.613327 170.291763,153.647934 
	C167.895477,158.034393 158.031525,170.746613 156.451492,175.836380 
	C155.780502,177.997849 153.965637,179.785599 152.801971,181.818375 
	C151.789078,183.587784 150.188828,185.518631 150.315216,187.272400 
	C150.403503,188.497620 152.855042,189.747040 154.449966,190.623672 
	C156.852753,191.944351 159.429382,192.948746 161.470245,194.046249 
	C147.287064,192.520996 134.224152,195.919189 122.199478,201.619583 
	C105.504272,209.534119 91.830833,221.498215 82.599380,237.916122 
	C74.232185,252.796982 67.947273,268.395996 68.103218,285.776794 
	C68.187668,295.188843 69.231148,304.592255 69.547104,313.818726 
	C68.163406,311.549805 67.014427,309.490356 66.002457,307.365662 
	C64.952148,305.160492 64.327042,302.695465 62.985893,300.700439 
	C61.245712,298.111877 55.878654,298.321411 54.264122,300.686890 
	C49.401684,307.810974 44.284153,314.772400 39.695324,322.067261 
	C37.206757,326.023315 34.754910,330.346375 33.778557,334.828888 
	C32.327702,341.489838 28.360151,345.890106 24.123596,350.764740 
	C21.895533,353.328400 21.616796,358.552307 22.161993,362.328949 
	C22.938976,367.711151 25.281824,372.867340 26.955799,378.120056 
z"/>
<path fill="#ECEDFF" opacity="1.000000" stroke="none" 
	d="
M462.046722,171.126999 
	C460.289642,176.597748 458.683319,182.122513 456.746338,187.528824 
	C451.577698,201.955170 446.282013,216.336105 441.004669,230.723312 
	C439.082275,235.964157 437.068878,241.171616 434.768219,246.840118 
	C434.213623,247.515503 434.080292,247.789978 434.039398,248.109360 
	C434.039398,248.109360 433.992249,248.554794 433.659668,248.459900 
	C432.613892,245.025864 431.900665,241.686737 431.056915,237.736542 
	C431.503723,236.355164 432.270935,233.983276 433.038147,231.611374 
	C432.506592,231.405945 431.975037,231.200500 431.443481,230.995071 
	C430.630280,231.878998 429.817047,232.762939 429.943207,232.625793 
	C426.322601,232.839478 423.803070,232.988190 420.872955,233.161118 
	C420.713470,232.921844 420.034058,232.305374 419.854858,231.567459 
	C418.818359,227.299133 418.063934,222.955475 416.864319,218.736786 
	C416.350952,216.931503 415.269226,215.093323 413.950043,213.760864 
	C412.296539,212.090729 410.133575,210.925018 408.588379,209.824875 
	C405.255554,210.575974 401.978516,211.386688 398.670197,212.038483 
	C395.724884,212.618759 392.577942,212.578568 389.821228,213.614136 
	C386.117981,215.005295 382.704254,217.167343 379.166260,218.998474 
	C382.815674,208.160263 386.379669,197.292343 390.137268,186.491791 
	C394.334534,174.427612 398.699005,162.421524 403.007294,150.396088 
	C405.429596,143.634857 407.885468,136.885635 410.451416,129.784576 
	C400.061523,125.771217 389.950409,122.073700 380.017242,117.947777 
	C374.371277,115.602623 374.463043,114.518974 379.259064,111.004875 
	C392.178558,101.538498 405.044525,91.999054 417.961029,82.528519 
	C419.629761,81.304970 421.471039,80.316742 423.931335,79.095062 
	C425.962372,78.380890 427.316864,77.836632 428.622467,77.193176 
	C433.074036,74.999214 437.508392,72.770309 441.949310,70.554733 
	C442.415833,71.037903 442.882355,71.521065 443.348877,72.004227 
	C442.429596,74.430046 441.510345,76.855873 440.522522,79.462570 
	C444.574127,78.706299 446.575867,79.363823 445.333710,84.503746 
	C444.663086,87.278664 446.444702,90.655403 447.166077,93.749886 
	C447.312347,94.377411 448.042114,95.115593 447.865662,95.533844 
	C445.905365,100.179405 449.572144,103.220886 450.897644,106.941261 
	C451.407318,108.371780 451.419891,110.097069 451.232697,111.636208 
	C450.664520,116.307236 450.717773,120.484726 455.430908,123.447853 
	C456.807068,124.313026 457.257019,126.759415 457.960632,128.548264 
	C458.430695,129.743256 458.178986,131.551743 458.977112,132.229034 
	C461.893158,134.703384 461.470917,137.983429 462.178467,141.195496 
	C463.624664,147.760681 464.199493,154.184708 463.084747,160.823212 
	C462.859955,162.161758 463.696167,163.678467 464.043213,165.113037 
	C464.043213,165.113037 463.985992,165.566589 463.563538,165.792511 
	C459.196381,166.954391 463.129791,169.578018 462.046722,171.126999 
z"/>
<path fill="#E8EFFF" opacity="1.000000" stroke="none" 
	d="
M253.829987,251.996857 
	C256.192932,261.913086 258.555878,271.829315 261.033020,282.224731 
	C267.558441,266.741516 273.871948,252.058960 279.934631,237.273575 
	C284.131134,227.039230 287.583740,216.482117 292.156036,206.427231 
	C294.411652,201.466904 297.861481,196.697006 301.817596,192.944412 
	C307.889099,187.185257 317.537872,189.408920 321.972290,194.662292 
	C325.027649,198.281921 327.781006,202.600510 329.203339,207.072952 
	C333.834442,221.635223 337.791901,236.411697 341.984009,251.573364 
	C341.959351,252.040985 341.834900,252.164932 341.643127,252.240662 
	C341.225494,252.494034 341.075470,252.721710 341.000610,252.999695 
	C341.000000,253.000000 340.998779,253.000610 340.601746,253.001129 
	C337.000305,253.142319 334.269745,253.802261 333.798981,257.767303 
	C333.704559,258.562622 332.671509,259.276642 332.010040,259.969757 
	C327.112213,265.101959 322.198212,270.218750 317.291595,275.342621 
	C316.842407,275.811707 316.499146,276.479248 315.955261,276.746216 
	C306.982361,281.150909 297.773926,284.886108 287.968658,287.100922 
	C285.356720,287.690918 282.319580,288.642426 284.037842,292.796722 
	C284.299103,293.428345 282.711914,295.725922 282.077698,295.686218 
	C276.157257,295.315796 271.758301,297.210510 269.313934,302.920715 
	C268.972839,303.717529 267.591187,304.863312 267.115540,304.689087 
	C259.846680,302.026733 256.370789,308.817047 251.056702,310.938568 
	C245.068359,313.329285 238.268539,314.383636 235.220276,321.258759 
	C235.157883,321.399475 234.996567,321.582397 234.867035,321.594727 
	C232.057877,321.862213 229.246674,322.108215 226.435867,322.358368 
	C226.448700,320.238159 226.462952,318.117981 226.473663,315.997772 
	C226.477921,315.155304 226.474380,314.312744 226.474380,313.141907 
	C224.125763,315.695068 222.146332,317.846893 220.084702,319.587219 
	C216.985779,306.158844 213.969055,293.141998 211.003906,279.752686 
	C211.792130,276.688110 212.528778,273.996033 213.265427,271.303955 
	C216.139175,268.611145 218.567917,265.318329 221.162704,262.162018 
	C221.903809,261.260529 223.468781,259.943237 224.073273,260.198181 
	C228.294357,261.978424 229.994064,259.707458 230.606339,257.131561 
	C234.603394,256.605957 238.313324,256.958466 241.078781,255.509048 
	C243.647125,254.162888 245.207779,250.894104 247.212097,248.471817 
	C247.669571,248.804962 248.127029,249.138092 248.584488,249.471222 
	C248.584488,250.828339 248.584488,252.185455 248.584488,253.561508 
	C250.466583,253.000107 252.148285,252.498489 253.829987,251.996857 
z"/>
<path fill="#F3EDFF" opacity="1.000000" stroke="none" 
	d="
M464.397125,165.069199 
	C463.696167,163.678467 462.859955,162.161758 463.084747,160.823212 
	C464.199493,154.184708 463.624664,147.760681 462.178467,141.195496 
	C461.470917,137.983429 461.893158,134.703384 458.977112,132.229034 
	C458.178986,131.551743 458.430695,129.743256 457.960632,128.548264 
	C457.257019,126.759415 456.807068,124.313026 455.430908,123.447853 
	C450.717773,120.484726 450.664520,116.307236 451.232697,111.636208 
	C451.419891,110.097069 451.407318,108.371780 450.897644,106.941261 
	C449.572144,103.220886 445.905365,100.179405 447.865662,95.533844 
	C448.042114,95.115593 447.312347,94.377411 447.166077,93.749886 
	C446.444702,90.655403 444.663086,87.278664 445.333710,84.503746 
	C446.575867,79.363823 444.574127,78.706299 440.522522,79.462570 
	C441.510345,76.855873 442.429596,74.430046 443.348877,72.004227 
	C442.882355,71.521065 442.415833,71.037903 441.949310,70.554733 
	C437.508392,72.770309 433.074036,74.999214 428.622467,77.193176 
	C427.316864,77.836632 425.962372,78.380890 424.250732,78.961563 
	C429.935852,74.115471 435.861511,69.090607 442.091888,64.477364 
	C459.384613,51.673191 476.803558,39.039509 494.174927,26.341579 
	C495.344452,25.486683 496.517426,24.634851 497.715637,23.821095 
	C500.288330,22.073954 501.676514,22.952692 501.984253,25.866844 
	C502.106018,27.019875 501.999359,28.196869 501.999207,29.362951 
	C501.993164,83.334763 502.001831,137.306595 501.909760,191.278259 
	C501.907104,192.836060 500.838837,194.392044 500.267456,195.948883 
	C498.903076,195.204025 497.329376,194.691162 496.206940,193.678207 
	C485.677612,184.176056 475.225464,174.588348 464.397125,165.069199 
z"/>
<path fill="#E4E8FF" opacity="1.000000" stroke="none" 
	d="
M179.008423,458.859924 
	C178.555756,458.903839 178.103073,458.947693 177.110428,458.604614 
	C174.046982,457.811737 171.523499,457.405853 168.843613,456.688629 
	C165.235443,450.840149 165.441864,449.661377 170.440155,445.740814 
	C171.212723,445.134796 171.879684,444.387604 172.561005,443.672821 
	C176.062164,439.999878 179.540909,436.305389 183.065216,432.654877 
	C183.376831,432.332092 183.951691,432.245605 184.418625,432.093384 
	C191.306488,429.848175 193.965042,422.727722 199.471466,418.644684 
	C202.533279,416.374390 203.441284,411.879272 208.901855,414.974731 
	C209.710266,412.310638 210.155289,410.037323 211.097015,407.992737 
	C211.868286,406.318268 212.967010,403.967926 214.382050,403.573761 
	C218.394882,402.455841 222.074707,401.637207 222.534210,396.477203 
	C222.600754,395.729828 224.274170,394.523132 225.174484,394.549225 
	C231.470795,394.731567 233.121246,389.576202 235.670105,385.587128 
	C238.926819,380.490265 242.616623,376.620483 249.405670,376.816467 
	C251.287720,376.870819 253.362885,374.980042 255.111130,373.664856 
	C257.072845,372.189178 258.723969,370.308167 260.581116,368.684631 
	C265.943909,363.996552 274.041962,362.726013 277.264374,355.321564 
	C277.488312,354.807068 278.425537,354.648376 278.829712,354.158203 
	C279.952545,352.796509 280.884186,351.272247 282.049286,349.951569 
	C283.498291,348.309052 284.888458,346.358093 286.748169,345.457092 
	C287.522675,345.081879 289.443268,347.072205 290.842712,347.986877 
	C287.292542,360.148560 283.900391,372.359161 280.154053,384.460114 
	C274.937988,401.307922 263.464661,413.862000 250.877045,425.431580 
	C244.395157,431.389282 237.700165,437.367737 230.251724,441.957947 
	C220.720718,447.831573 210.675018,453.080475 199.332489,455.050903 
	C193.112839,456.131378 186.966049,457.631409 180.287704,458.745758 
	C179.528809,458.652802 179.268616,458.756378 179.008423,458.859924 
z"/>
<path fill="#E5E8FF" opacity="1.000000" stroke="none" 
	d="
M290.919800,347.617218 
	C289.443268,347.072205 287.522675,345.081879 286.748169,345.457092 
	C284.888458,346.358093 283.498291,348.309052 282.049286,349.951569 
	C280.884186,351.272247 279.952545,352.796509 278.829712,354.158203 
	C278.425537,354.648376 277.488312,354.807068 277.264374,355.321564 
	C274.041962,362.726013 265.943909,363.996552 260.581116,368.684631 
	C258.723969,370.308167 257.072845,372.189178 255.111130,373.664856 
	C253.362885,374.980042 251.287720,376.870819 249.405670,376.816467 
	C242.616623,376.620483 238.926819,380.490265 235.670105,385.587128 
	C233.121246,389.576202 231.470795,394.731567 225.174484,394.549225 
	C224.274170,394.523132 222.600754,395.729828 222.534210,396.477203 
	C222.074707,401.637207 218.394882,402.455841 214.382050,403.573761 
	C212.967010,403.967926 211.868286,406.318268 211.097015,407.992737 
	C210.155289,410.037323 209.710266,412.310638 208.901855,414.974731 
	C203.441284,411.879272 202.533279,416.374390 199.471466,418.644684 
	C193.965042,422.727722 191.306488,429.848175 184.418625,432.093384 
	C183.951691,432.245605 183.376831,432.332092 183.065216,432.654877 
	C179.540909,436.305389 176.062164,439.999878 172.561005,443.672821 
	C171.879684,444.387604 171.212723,445.134796 170.440155,445.740814 
	C165.441864,449.661377 165.235443,450.840149 168.638245,456.943420 
	C167.397278,457.954590 166.205292,458.399658 165.013306,458.844727 
	C164.252609,458.894226 163.491898,458.943756 162.142578,458.597839 
	C156.368301,457.468689 151.182632,456.734924 145.622574,456.000946 
	C144.499405,456.000458 143.750626,456.000244 142.956680,455.619751 
	C142.911530,452.371368 142.911530,449.503204 142.911530,446.339233 
	C146.083969,445.826538 148.651474,445.180664 151.244705,445.051544 
	C154.423401,444.893188 154.960220,443.224701 155.020309,440.467072 
	C155.060959,438.601471 155.815933,436.655151 156.629852,434.922760 
	C158.313110,431.339935 160.279175,428.036438 165.149643,428.283447 
	C166.019638,428.327576 166.974136,427.015167 167.864426,426.297852 
	C172.237503,422.774445 176.732040,419.836823 180.041214,414.656036 
	C183.310974,409.536896 186.791122,405.142731 186.358307,398.284058 
	C189.496735,397.595184 192.712265,396.889374 195.927795,396.183563 
	C194.768250,394.317108 193.465424,393.335144 192.032425,393.077728 
	C189.179245,392.565155 188.874374,391.127808 190.094254,388.522491 
	C194.780869,385.444946 199.316345,382.691925 204.098145,379.838623 
	C204.537979,379.449738 204.731476,379.161133 204.942657,378.916016 
	C204.960327,378.959564 204.873413,378.923798 205.116516,378.826721 
	C205.547577,378.444305 205.735550,378.158966 205.942322,377.917480 
	C205.961105,377.961334 205.873428,377.923767 206.116547,377.826691 
	C206.547653,377.444305 206.735641,377.158966 206.946228,376.919189 
	C206.968826,376.964752 206.878677,376.917694 207.105698,376.857117 
	C207.629578,376.658325 207.848724,376.441559 208.320312,376.000488 
	C213.726532,368.400909 218.912460,361.003235 221.258362,351.965271 
	C226.325302,351.456818 225.924149,354.715118 225.283035,359.072357 
	C227.508789,357.341339 229.819809,356.007721 229.665009,355.591797 
	C228.296402,351.914459 231.424805,351.525848 233.239090,350.195801 
	C234.970093,348.926849 237.617020,348.071716 238.316086,346.391693 
	C240.207657,341.845795 243.015594,341.972351 247.087692,342.838074 
	C251.781174,343.835907 255.722931,341.136047 254.822174,337.880737 
	C253.476990,333.019257 257.098816,332.618195 259.698486,330.873199 
	C262.252930,329.158600 264.493317,326.976807 266.883789,325.014984 
	C266.983582,324.933075 267.228790,324.951691 267.371277,325.009613 
	C270.753967,326.384003 274.101715,327.851868 277.525360,329.114197 
	C278.900818,329.621307 281.255005,330.410156 281.775482,329.828522 
	C285.463013,325.707581 288.330048,320.748627 292.402039,317.113678 
	C294.907013,314.877533 296.607788,309.691345 301.833679,311.999237 
	C298.169922,315.331512 298.850830,320.043213 297.442505,324.626740 
	C295.765533,325.154388 294.590027,325.306061 293.414490,325.457733 
	C293.317200,325.813904 293.219910,326.170105 293.122650,326.526276 
	C294.119781,327.030365 295.116943,327.534454 296.114105,328.038544 
	C296.076752,328.777283 296.039368,329.516052 295.662842,330.511597 
	C289.608124,334.776245 289.555847,334.976532 292.120117,343.045288 
	C291.745728,344.446045 291.371307,345.846802 290.919800,347.617218 
M262.344086,340.310730 
	C263.670013,340.525818 264.995972,340.740936 266.321930,340.956024 
	C266.389160,340.198059 266.456390,339.440094 266.523621,338.682098 
	C265.139740,338.983643 263.755890,339.285187 262.344086,340.310730 
M226.403595,366.197327 
	C226.789871,366.201630 227.176147,366.205933 227.562439,366.210205 
	C227.564041,366.049927 227.576462,365.750366 227.565689,365.749512 
	C227.181320,365.719696 226.794800,365.717834 226.403595,366.197327 
z"/>
<path fill="#E6EBFF" opacity="1.000000" stroke="none" 
	d="
M379.001709,219.342377 
	C382.704254,217.167343 386.117981,215.005295 389.821228,213.614136 
	C392.577942,212.578568 395.724884,212.618759 398.670197,212.038483 
	C401.978516,211.386688 405.255554,210.575974 408.588379,209.824875 
	C410.133575,210.925018 412.296539,212.090729 413.950043,213.760864 
	C415.269226,215.093323 416.350952,216.931503 416.864319,218.736786 
	C418.063934,222.955475 418.818359,227.299133 419.854858,231.567459 
	C420.034058,232.305374 420.713470,232.921844 420.872955,233.161118 
	C423.803070,232.988190 426.322601,232.839478 429.943207,232.625793 
	C429.817047,232.762939 430.630280,231.878998 431.443481,230.995071 
	C431.975037,231.200500 432.506592,231.405945 433.038147,231.611374 
	C432.270935,233.983276 431.503723,236.355164 431.056915,237.736542 
	C431.900665,241.686737 432.613892,245.025864 433.573853,248.666748 
	C431.886902,254.653519 430.063568,260.379028 427.995514,266.014740 
	C424.204895,276.344727 420.205170,286.598145 416.428253,296.933014 
	C415.009430,300.815430 413.968079,304.835785 412.386719,308.523010 
	C412.459930,304.321014 412.496155,300.287262 413.454041,296.485718 
	C414.444641,292.554382 413.134735,290.195374 410.123474,288.162811 
	C406.003662,292.475586 401.347992,288.972015 397.142426,289.654388 
	C392.492096,290.408997 387.911774,291.821198 383.433594,293.338562 
	C379.846466,294.553925 376.377747,297.699615 373.004700,297.498749 
	C369.942841,297.316437 366.716156,294.135010 364.227448,291.618011 
	C361.400330,288.758728 359.312042,285.168945 356.902588,281.896729 
	C361.262817,269.222076 365.566284,256.527466 370.003784,243.879944 
	C372.845917,235.779465 375.885895,227.748428 379.001709,219.342377 
z"/>
<path fill="#E6EBFF" opacity="1.000000" stroke="none" 
	d="
M301.909790,311.644501 
	C296.607788,309.691345 294.907013,314.877533 292.402039,317.113678 
	C288.330048,320.748627 285.463013,325.707581 281.775482,329.828522 
	C281.255005,330.410156 278.900818,329.621307 277.525360,329.114197 
	C274.101715,327.851868 270.753967,326.384003 267.371277,325.009613 
	C267.228790,324.951691 266.983582,324.933075 266.883789,325.014984 
	C264.493317,326.976807 262.252930,329.158600 259.698486,330.873199 
	C257.098816,332.618195 253.476990,333.019257 254.822174,337.880737 
	C255.722931,341.136047 251.781174,343.835907 247.087692,342.838074 
	C243.015594,341.972351 240.207657,341.845795 238.316086,346.391693 
	C237.617020,348.071716 234.970093,348.926849 233.239090,350.195801 
	C231.424805,351.525848 228.296402,351.914459 229.665009,355.591797 
	C229.819809,356.007721 227.508789,357.341339 225.283035,359.072357 
	C225.924149,354.715118 226.325302,351.456818 221.323059,351.571960 
	C221.044189,350.105743 221.100983,349.047394 221.446243,347.808960 
	C222.549332,345.753906 226.228378,343.943146 221.924866,341.520721 
	C222.046936,339.059296 222.106201,337.029083 222.509186,334.916046 
	C225.870987,331.663208 222.725510,330.033417 221.076019,327.598083 
	C220.724869,324.789185 220.445892,322.393982 220.166901,319.998749 
	C222.146332,317.846893 224.125763,315.695068 226.474380,313.141907 
	C226.474380,314.312744 226.477921,315.155304 226.473663,315.997772 
	C226.462952,318.117981 226.448700,320.238159 226.435867,322.358368 
	C229.246674,322.108215 232.057877,321.862213 234.867035,321.594727 
	C234.996567,321.582397 235.157883,321.399475 235.220276,321.258759 
	C238.268539,314.383636 245.068359,313.329285 251.056702,310.938568 
	C256.370789,308.817047 259.846680,302.026733 267.115540,304.689087 
	C267.591187,304.863312 268.972839,303.717529 269.313934,302.920715 
	C271.758301,297.210510 276.157257,295.315796 282.077698,295.686218 
	C282.711914,295.725922 284.299103,293.428345 284.037842,292.796722 
	C282.319580,288.642426 285.356720,287.690918 287.968658,287.100922 
	C297.773926,284.886108 306.982361,281.150909 315.955261,276.746216 
	C316.499146,276.479248 316.842407,275.811707 317.291595,275.342621 
	C322.198212,270.218750 327.112213,265.101959 332.010040,259.969757 
	C332.671509,259.276642 333.704559,258.562622 333.798981,257.767303 
	C334.269745,253.802261 337.000305,253.142319 340.556885,253.381805 
	C339.362915,259.260529 340.525116,262.072357 345.111298,263.928711 
	C345.111298,263.928711 345.028229,263.972137 345.113098,264.155029 
	C345.340973,264.633270 345.560791,264.850983 345.857483,264.991058 
	C345.907684,265.711914 345.957916,266.432739 346.095642,267.740448 
	C346.327240,268.620514 346.545074,268.840820 346.836639,268.988220 
	C348.796173,276.383362 350.755707,283.778503 352.868134,291.931213 
	C352.663727,296.477814 355.158691,297.396301 358.172180,298.023529 
	C360.174469,298.440277 362.096893,299.240875 364.055054,299.869659 
	C363.944214,300.446991 363.833344,301.024323 363.722504,301.601685 
	C361.876282,301.685944 360.024506,301.906616 358.184692,301.832306 
	C346.383850,301.355469 334.587646,300.742371 322.783325,300.403961 
	C321.597107,300.369904 320.366852,301.870605 319.157013,302.659058 
	C319.308777,303.002838 319.460571,303.346619 319.612335,303.690430 
	C323.690216,303.929993 327.768127,304.169556 331.846008,304.409149 
	C331.942444,304.935944 332.038910,305.462769 332.135376,305.989563 
	C330.368164,306.936523 328.695221,308.343628 326.813019,308.729156 
	C323.486450,309.410553 320.032501,309.469940 317.751892,309.684387 
	C313.836639,307.953156 310.496979,306.476471 307.157288,304.999756 
	C307.067535,303.516357 306.977753,302.032990 306.870728,300.264587 
	C301.618866,302.475281 304.421448,308.076233 301.909790,311.644501 
z"/>
<path fill="#EFF7FF" opacity="1.000000" stroke="none" 
	d="
M161.932114,194.087585 
	C159.429382,192.948746 156.852753,191.944351 154.449966,190.623672 
	C152.855042,189.747040 150.403503,188.497620 150.315216,187.272400 
	C150.188828,185.518631 151.789078,183.587784 152.801971,181.818375 
	C153.965637,179.785599 155.780502,177.997849 156.451492,175.836380 
	C158.031525,170.746613 167.895477,158.034393 170.291763,153.647934 
	C172.495850,149.613327 178.285919,146.895660 176.266663,140.323807 
	C174.889984,135.843277 179.745529,136.289322 182.507446,135.343689 
	C184.955093,134.505646 187.335236,133.470398 189.898560,132.203476 
	C205.489609,135.650528 218.030853,143.492004 225.409988,158.003494 
	C229.927277,166.886978 233.832016,176.081970 237.697754,185.517975 
	C233.443161,183.827515 231.222900,180.721893 230.897522,176.138214 
	C230.806107,174.850204 229.509506,173.647736 228.765717,172.406036 
	C228.182037,173.803467 227.143616,175.197784 227.134033,176.599121 
	C227.122971,178.215973 228.019577,179.839020 228.596695,181.700195 
	C225.980713,181.936111 223.780960,182.134491 221.085419,182.377563 
	C226.009125,186.355377 225.928009,188.748840 221.540604,191.722870 
	C218.750443,193.614197 216.000946,195.609009 213.467575,197.825287 
	C209.856720,200.984238 205.865112,203.968781 203.152618,207.815186 
	C200.779953,211.179733 199.571747,212.401505 196.742889,208.651016 
	C194.982025,206.316467 193.003830,206.386719 191.208847,208.752716 
	C193.279709,213.505539 197.664810,217.412079 194.607574,222.960800 
	C191.833420,214.007401 187.288925,206.340973 179.684387,201.417984 
	C174.739288,198.216660 169.941360,193.397339 162.841858,194.616150 
	C162.478104,194.225037 162.209320,194.098953 161.931000,194.042114 
	C161.960938,194.027222 161.932114,194.087585 161.932114,194.087585 
z"/>
<path fill="#EFF7FF" opacity="1.000000" stroke="none" 
	d="
M26.976334,378.483185 
	C25.281824,372.867340 22.938976,367.711151 22.161993,362.328949 
	C21.616796,358.552307 21.895533,353.328400 24.123596,350.764740 
	C28.360151,345.890106 32.327702,341.489838 33.778557,334.828888 
	C34.754910,330.346375 37.206757,326.023315 39.695324,322.067261 
	C44.284153,314.772400 49.401684,307.810974 54.264122,300.686890 
	C55.878654,298.321411 61.245712,298.111877 62.985893,300.700439 
	C64.327042,302.695465 64.952148,305.160492 66.002457,307.365662 
	C67.014427,309.490356 68.163406,311.549805 69.620529,314.240173 
	C70.995392,318.854889 71.450775,323.114716 73.118271,326.830597 
	C77.117607,335.742920 81.519615,344.488342 86.106071,353.116699 
	C87.980240,356.642548 90.751114,359.691711 92.795822,363.088379 
	C87.121651,361.566956 82.726662,365.817596 77.303589,365.253204 
	C77.530113,369.401489 75.544945,371.244171 71.858284,371.622864 
	C70.968292,371.714294 69.542793,372.354614 69.391869,372.987640 
	C67.881050,379.324554 62.762978,383.391937 59.372799,388.460175 
	C57.208805,391.695282 54.067341,393.905701 56.009796,398.281952 
	C52.496273,398.694611 48.748997,398.041901 51.717556,403.394104 
	C53.489601,406.589020 53.921276,410.527405 54.955475,414.131561 
	C47.973694,406.168182 40.826939,398.340912 34.088894,390.176392 
	C31.277071,386.769257 29.334627,382.644684 26.976334,378.483185 
z"/>
<path fill="#E4E6FF" opacity="1.000000" stroke="none" 
	d="
M321.867188,360.048950 
	C320.244476,354.004944 318.621765,347.960968 317.046936,341.160278 
	C320.504669,336.977814 322.591431,341.123047 325.287933,341.817169 
	C327.385162,342.357025 329.636444,343.468689 331.608093,343.122742 
	C340.009338,341.648804 348.336426,339.747375 356.676453,337.936951 
	C357.471985,337.764252 358.169373,337.139496 360.144684,336.036469 
	C355.084503,334.839966 351.297577,333.944550 346.365234,332.778290 
	C349.579468,331.632599 351.910339,330.609833 354.342865,329.978973 
	C358.164734,328.987762 362.114960,328.467346 365.901428,327.370026 
	C370.736450,325.968842 375.415710,323.351959 380.359039,327.093414 
	C381.065613,327.628174 382.554596,328.078308 383.111542,327.708710 
	C386.924927,325.178314 392.467804,325.189728 394.364502,319.665894 
	C394.852081,318.245911 397.256744,316.658325 398.825012,316.610809 
	C401.897736,316.517731 405.001678,317.453979 408.092682,317.964233 
	C403.081573,332.734222 398.070465,347.504242 392.564911,362.652527 
	C389.638794,364.818451 387.207123,366.606110 383.970764,368.985352 
	C385.433136,370.423187 387.273132,372.232269 389.113098,374.041351 
	C389.059631,374.227966 389.006165,374.414612 388.468201,375.011353 
	C383.158264,374.554169 377.385773,377.123108 374.077820,371.339111 
	C370.769623,374.263519 367.898621,376.595520 369.524506,381.872925 
	C370.635071,385.477722 366.548035,385.745331 364.565918,384.457520 
	C361.151062,382.238770 358.209412,383.221283 355.153625,384.492249 
	C351.352142,386.073364 347.658661,387.914062 343.674591,389.755402 
	C340.985413,387.747803 338.297668,384.011963 334.480164,388.940491 
	C332.824005,385.631287 330.619965,382.942932 330.247620,380.021179 
	C329.841400,376.833344 328.360260,375.318268 325.933655,374.037628 
	C325.933655,374.037628 325.993805,373.998779 325.995911,373.633057 
	C328.113342,367.769836 325.163605,363.855225 321.867188,360.048950 
M379.392242,368.876343 
	C378.982635,367.953003 378.573029,367.029663 378.163452,366.106354 
	C377.477600,366.790741 376.791779,367.475128 376.105927,368.159485 
	C377.027527,368.571960 377.949097,368.984436 379.392242,368.876343 
z"/>
<path fill="#E5E8FF" opacity="1.000000" stroke="none" 
	d="
M408.151245,317.616150 
	C405.001678,317.453979 401.897736,316.517731 398.825012,316.610809 
	C397.256744,316.658325 394.852081,318.245911 394.364502,319.665894 
	C392.467804,325.189728 386.924927,325.178314 383.111542,327.708710 
	C382.554596,328.078308 381.065613,327.628174 380.359039,327.093414 
	C375.415710,323.351959 370.736450,325.968842 365.901428,327.370026 
	C362.114960,328.467346 358.164734,328.987762 354.342865,329.978973 
	C351.910339,330.609833 349.579468,331.632599 346.365234,332.778290 
	C351.297577,333.944550 355.084503,334.839966 360.144684,336.036469 
	C358.169373,337.139496 357.471985,337.764252 356.676453,337.936951 
	C348.336426,339.747375 340.009338,341.648804 331.608093,343.122742 
	C329.636444,343.468689 327.385162,342.357025 325.287933,341.817169 
	C322.591431,341.123047 320.504669,336.977814 317.023376,340.765930 
	C314.294678,331.400421 311.637390,321.672546 308.964600,311.238098 
	C308.683685,310.025177 308.418182,309.518799 308.152679,309.012451 
	C308.152679,309.012451 307.998260,308.590942 307.904785,308.137573 
	C307.667297,307.382935 307.445709,307.158051 307.146606,307.009552 
	C307.102020,306.560974 307.057465,306.112396 307.085083,305.331787 
	C310.496979,306.476471 313.836639,307.953156 317.751892,309.684387 
	C320.032501,309.469940 323.486450,309.410553 326.813019,308.729156 
	C328.695221,308.343628 330.368164,306.936523 332.135376,305.989563 
	C332.038910,305.462769 331.942444,304.935944 331.846008,304.409149 
	C327.768127,304.169556 323.690216,303.929993 319.612335,303.690430 
	C319.460571,303.346619 319.308777,303.002838 319.157013,302.659058 
	C320.366852,301.870605 321.597107,300.369904 322.783325,300.403961 
	C334.587646,300.742371 346.383850,301.355469 358.184692,301.832306 
	C360.024506,301.906616 361.876282,301.685944 363.722504,301.601685 
	C363.833344,301.024323 363.944214,300.446991 364.055054,299.869659 
	C362.096893,299.240875 360.174469,298.440277 358.172180,298.023529 
	C355.158691,297.396301 352.663727,296.477814 353.031921,292.286896 
	C353.042816,291.884979 353.459656,291.968292 354.071350,291.973083 
	C360.788239,291.087494 357.583252,288.370605 355.866455,285.945709 
	C355.914581,285.505951 355.962708,285.066162 356.301025,284.104553 
	C356.698700,283.017456 356.806122,282.452179 356.913574,281.886902 
	C356.913574,281.886902 356.945343,281.927338 356.923950,281.912048 
	C359.312042,285.168945 361.400330,288.758728 364.227448,291.618011 
	C366.716156,294.135010 369.942841,297.316437 373.004700,297.498749 
	C376.377747,297.699615 379.846466,294.553925 383.433594,293.338562 
	C387.911774,291.821198 392.492096,290.408997 397.142426,289.654388 
	C401.347992,288.972015 406.003662,292.475586 410.123474,288.162811 
	C413.134735,290.195374 414.444641,292.554382 413.454041,296.485718 
	C412.496155,300.287262 412.459930,304.321014 412.031982,308.692200 
	C410.766693,311.843750 409.488281,314.555878 408.151245,317.616150 
z"/>
<path fill="#ECF3FF" opacity="1.000000" stroke="none" 
	d="
M194.952637,223.123123 
	C197.664810,217.412079 193.279709,213.505539 191.208847,208.752716 
	C193.003830,206.386719 194.982025,206.316467 196.742889,208.651016 
	C199.571747,212.401505 200.779953,211.179733 203.152618,207.815186 
	C205.865112,203.968781 209.856720,200.984238 213.467575,197.825287 
	C216.000946,195.609009 218.750443,193.614197 221.540604,191.722870 
	C225.928009,188.748840 226.009125,186.355377 221.085419,182.377563 
	C223.780960,182.134491 225.980713,181.936111 228.596695,181.700195 
	C228.019577,179.839020 227.122971,178.215973 227.134033,176.599121 
	C227.143616,175.197784 228.182037,173.803467 228.765717,172.406036 
	C229.509506,173.647736 230.806107,174.850204 230.897522,176.138214 
	C231.222900,180.721893 233.443161,183.827515 237.739166,185.911194 
	C238.094650,185.923477 238.036530,185.956665 238.047256,186.222656 
	C238.321304,186.988693 238.584641,187.488754 238.847961,187.988815 
	C242.237411,202.018005 245.638138,216.044479 249.011551,230.077530 
	C250.701782,237.108734 252.342239,244.151901 253.917603,251.593262 
	C252.148285,252.498489 250.466583,253.000107 248.584488,253.561508 
	C248.584488,252.185455 248.584488,250.828339 248.584488,249.471222 
	C248.127029,249.138092 247.669571,248.804962 247.212097,248.471817 
	C245.207779,250.894104 243.647125,254.162888 241.078781,255.509048 
	C238.313324,256.958466 234.603394,256.605957 230.606339,257.131561 
	C229.994064,259.707458 228.294357,261.978424 224.073273,260.198181 
	C223.468781,259.943237 221.903809,261.260529 221.162704,262.162018 
	C218.567917,265.318329 216.139175,268.611145 213.265427,271.303955 
	C212.528778,273.996033 211.792130,276.688110 210.637878,279.566742 
	C208.475937,273.300537 206.728088,266.848694 204.988205,260.394745 
	C203.002533,253.028900 201.024902,245.660889 199.041916,238.294312 
	C197.680481,233.236801 196.315842,228.180145 194.952637,223.123123 
z"/>
<path fill="#ECF3FF" opacity="1.000000" stroke="none" 
	d="
M55.072060,414.443878 
	C53.921276,410.527405 53.489601,406.589020 51.717556,403.394104 
	C48.748997,398.041901 52.496273,398.694611 56.009796,398.281952 
	C54.067341,393.905701 57.208805,391.695282 59.372799,388.460175 
	C62.762978,383.391937 67.881050,379.324554 69.391869,372.987640 
	C69.542793,372.354614 70.968292,371.714294 71.858284,371.622864 
	C75.544945,371.244171 77.530113,369.401489 77.303589,365.253204 
	C82.726662,365.817596 87.121651,361.566956 93.147827,363.105927 
	C95.548645,364.713501 97.279243,366.434174 99.144897,368.345642 
	C99.514900,368.758911 99.792908,368.890350 100.073189,368.942810 
	C100.032417,368.954834 100.056404,368.873260 100.213966,369.147156 
	C100.959557,369.596802 101.547577,369.772552 102.448563,370.069946 
	C109.387901,375.992950 116.153786,381.545929 124.761154,384.304504 
	C126.003670,384.702667 126.959839,385.994354 127.990967,387.256866 
	C126.656792,388.426971 125.465210,389.438416 124.088036,389.957336 
	C119.426857,391.713654 114.514465,392.423859 111.131134,397.092651 
	C104.907578,405.680756 97.954582,413.737244 91.495659,422.161041 
	C90.530548,423.419800 89.931740,425.643921 90.318146,427.118988 
	C91.268272,430.746155 90.907806,432.338684 86.685356,431.218292 
	C86.008537,431.038757 84.982079,432.176880 84.117249,432.705902 
	C84.793190,433.453827 85.370598,434.332581 86.161346,434.928070 
	C90.731544,438.369873 95.352058,441.744873 99.955559,445.142456 
	C92.921249,441.214996 85.545670,437.783234 78.939079,433.234528 
	C70.691269,427.555847 63.076630,420.957489 55.072060,414.443878 
z"/>
<path fill="#E8EFFF" opacity="1.000000" stroke="none" 
	d="
M100.114548,445.478821 
	C95.352058,441.744873 90.731544,438.369873 86.161346,434.928070 
	C85.370598,434.332581 84.793190,433.453827 84.117249,432.705902 
	C84.982079,432.176880 86.008537,431.038757 86.685356,431.218292 
	C90.907806,432.338684 91.268272,430.746155 90.318146,427.118988 
	C89.931740,425.643921 90.530548,423.419800 91.495659,422.161041 
	C97.954582,413.737244 104.907578,405.680756 111.131134,397.092651 
	C114.514465,392.423859 119.426857,391.713654 124.088036,389.957336 
	C125.465210,389.438416 126.656792,388.426971 128.371277,387.320618 
	C131.059494,387.727844 133.321976,388.420349 135.558060,389.189606 
	C143.950821,392.076843 152.293808,395.233704 161.373077,394.970917 
	C164.586578,394.877930 167.790268,394.444946 170.996918,394.552948 
	C171.078079,397.319031 170.345398,397.891663 167.703796,397.560150 
	C164.659912,397.178131 161.460693,398.034027 157.655533,398.420746 
	C158.613419,400.427917 159.067963,401.254242 159.412827,402.124084 
	C161.239288,406.730865 158.633484,413.305481 154.256104,413.839111 
	C149.068573,414.471527 147.865143,418.340210 145.977661,421.976776 
	C145.173752,423.525635 143.710373,424.721466 142.818115,426.237488 
	C140.984467,429.353119 136.867737,429.638794 135.258835,433.940155 
	C134.184631,436.811951 132.790039,442.278717 126.716560,442.546600 
	C122.860237,442.716644 121.895668,447.038971 123.862129,450.816620 
	C124.384590,451.820282 124.584297,452.991974 124.932205,454.086517 
	C116.712646,451.329407 108.493088,448.572266 100.114548,445.478821 
z"/>
<path fill="#E2E2FF" opacity="1.000000" stroke="none" 
	d="
M325.976257,374.449463 
	C328.360260,375.318268 329.841400,376.833344 330.247620,380.021179 
	C330.619965,382.942932 332.824005,385.631287 334.480164,388.940491 
	C338.297668,384.011963 340.985413,387.747803 343.674591,389.755402 
	C347.658661,387.914062 351.352142,386.073364 355.153625,384.492249 
	C358.209412,383.221283 361.151062,382.238770 364.565918,384.457520 
	C366.548035,385.745331 370.635071,385.477722 369.524506,381.872925 
	C367.898621,376.595520 370.769623,374.263519 374.077820,371.339111 
	C377.385773,377.123108 383.158264,374.554169 388.291870,375.243103 
	C385.386688,384.489563 382.373657,393.988678 378.909943,403.320557 
	C374.465607,415.294434 369.908203,427.240204 364.897156,438.983673 
	C362.592041,444.385681 359.542999,449.619690 355.997284,454.297760 
	C352.911011,458.369812 348.901245,457.522949 347.031555,452.584076 
	C344.984650,447.177094 343.697601,441.477478 342.162994,435.882507 
	C338.385315,422.109894 334.610657,408.336182 330.926239,394.538483 
	C329.182465,388.008240 327.648102,381.422119 325.976257,374.449463 
z"/>
<path fill="#E6EBFF" opacity="1.000000" stroke="none" 
	d="
M124.945755,454.056885 
	C124.584297,452.991974 124.384590,451.820282 123.862129,450.816620 
	C121.895668,447.038971 122.860237,442.716644 126.716560,442.546600 
	C132.790039,442.278717 134.184631,436.811951 135.258835,433.940155 
	C136.867737,429.638794 140.984467,429.353119 142.818115,426.237488 
	C143.710373,424.721466 145.173752,423.525635 145.977661,421.976776 
	C147.865143,418.340210 149.068573,414.471527 154.256104,413.839111 
	C158.633484,413.305481 161.239288,406.730865 159.412827,402.124084 
	C159.067963,401.254242 158.613419,400.427917 157.655533,398.420746 
	C161.460693,398.034027 164.659912,397.178131 167.703796,397.560150 
	C170.345398,397.891663 171.078079,397.319031 171.416992,394.475342 
	C178.164520,393.310730 184.299469,391.939941 189.943115,388.847046 
	C188.874374,391.127808 189.179245,392.565155 192.032425,393.077728 
	C193.465424,393.335144 194.768250,394.317108 195.927795,396.183563 
	C192.712265,396.889374 189.496735,397.595184 186.358307,398.284058 
	C186.791122,405.142731 183.310974,409.536896 180.041214,414.656036 
	C176.732040,419.836823 172.237503,422.774445 167.864426,426.297852 
	C166.974136,427.015167 166.019638,428.327576 165.149643,428.283447 
	C160.279175,428.036438 158.313110,431.339935 156.629852,434.922760 
	C155.815933,436.655151 155.060959,438.601471 155.020309,440.467072 
	C154.960220,443.224701 154.423401,444.893188 151.244705,445.051544 
	C148.651474,445.180664 146.083969,445.826538 142.911530,446.339233 
	C142.911530,449.503204 142.911530,452.371368 142.583282,455.577820 
	C138.542419,455.603638 134.829834,455.291138 131.117233,454.978607 
	C129.637772,454.980652 128.158295,454.982666 126.197739,454.719879 
	C125.487396,454.234497 125.215347,454.101227 124.900513,454.055328 
	C124.900513,454.055328 124.959312,454.027222 124.945755,454.056885 
z"/>
<path fill="#E2E2FF" opacity="1.000000" stroke="none" 
	d="
M389.457214,373.868103 
	C387.273132,372.232269 385.433136,370.423187 383.970764,368.985352 
	C387.207123,366.606110 389.638794,364.818451 392.450073,363.013641 
	C391.820221,366.562592 390.810791,370.128723 389.457214,373.868103 
z"/>
<path fill="#E4E8FF" opacity="1.000000" stroke="none" 
	d="
M292.466858,342.869507 
	C289.555847,334.976532 289.608124,334.776245 295.586426,330.874268 
	C294.837280,334.884705 293.825409,338.789215 292.466858,342.869507 
z"/>
<path fill="#E8EFFF" opacity="1.000000" stroke="none" 
	d="
M345.059265,263.528839 
	C340.525116,262.072357 339.362915,259.260529 340.953918,253.381287 
	C340.998779,253.000610 341.000000,253.000000 341.190491,252.914993 
	C341.632050,252.676361 341.783356,252.454681 341.834900,252.164932 
	C341.834900,252.164932 341.959351,252.040985 342.021729,251.979187 
	C343.058502,255.654572 344.032867,259.391785 345.059265,263.528839 
z"/>
<path fill="#E6EBFF" opacity="1.000000" stroke="none" 
	d="
M145.996948,456.001221 
	C151.182632,456.734924 156.368301,457.468689 161.767181,458.522766 
	C156.935181,458.563141 151.889938,458.283112 146.422058,457.615112 
	C145.998596,456.818481 145.997772,456.409851 145.996948,456.001221 
z"/>
<path fill="#E4E8FF" opacity="1.000000" stroke="none" 
	d="
M145.622574,456.000977 
	C145.997772,456.409851 145.998596,456.818481 146.000061,457.533600 
	C141.207565,457.078033 136.414429,456.316010 131.369263,455.266296 
	C134.829834,455.291138 138.542419,455.603638 142.628418,455.958069 
	C143.750626,456.000244 144.499405,456.000458 145.622574,456.000977 
z"/>
<path fill="#E2E2FF" opacity="1.000000" stroke="none" 
	d="
M321.936951,360.451904 
	C325.163605,363.855225 328.113342,367.769836 325.976562,373.663147 
	C324.639008,369.657623 323.322845,365.256226 321.936951,360.451904 
z"/>
<path fill="#E6EBFF" opacity="1.000000" stroke="none" 
	d="
M355.529297,286.103027 
	C357.583252,288.370605 360.788239,291.087494 354.283813,291.968018 
	C354.320465,290.058929 354.756317,288.159668 355.529297,286.103027 
z"/>
<path fill="#E6EBFF" opacity="1.000000" stroke="none" 
	d="
M165.467728,458.918762 
	C166.205292,458.399658 167.397278,457.954590 168.794632,457.254761 
	C171.523499,457.405853 174.046982,457.811737 176.775421,458.531189 
	C173.294296,458.894104 169.608231,458.943451 165.467728,458.918762 
z"/>
<path fill="#E4E8FF" opacity="1.000000" stroke="none" 
	d="
M296.402954,327.930969 
	C295.116943,327.534454 294.119781,327.030365 293.122650,326.526276 
	C293.219910,326.170105 293.317200,325.813904 293.414490,325.457733 
	C294.590027,325.306061 295.765533,325.154388 297.309937,325.010620 
	C297.349792,325.953491 297.020782,326.888428 296.402954,327.930969 
z"/>
<path fill="#F3EDFF" opacity="1.000000" stroke="none" 
	d="
M462.385315,170.972504 
	C463.129791,169.578018 459.196381,166.954391 463.491272,166.009354 
	C463.468933,167.606186 463.096436,169.212097 462.385315,170.972504 
z"/>
<path fill="#E6EBFF" opacity="1.000000" stroke="none" 
	d="
M308.079224,309.331970 
	C308.418182,309.518799 308.683685,310.025177 308.950653,310.830261 
	C308.636658,310.636475 308.321198,310.143982 308.079224,309.331970 
z"/>
<path fill="#E6EBFF" opacity="1.000000" stroke="none" 
	d="
M356.612793,282.007935 
	C356.806122,282.452179 356.698700,283.017456 356.373474,283.779755 
	C356.207794,283.360840 356.259888,282.744873 356.612793,282.007935 
z"/>
<path fill="#EFF7FF" opacity="1.000000" stroke="none" 
	d="
M238.924240,187.672180 
	C238.584641,187.488754 238.321304,186.988693 238.062485,186.192886 
	C238.378159,186.383270 238.689346,186.869400 238.924240,187.672180 
z"/>
<path fill="#E6EBFF" opacity="1.000000" stroke="none" 
	d="
M179.253265,458.930359 
	C179.268616,458.756378 179.528809,458.652802 179.883942,458.690674 
	C179.818604,458.888336 179.658356,458.944550 179.253265,458.930359 
z"/>
<path fill="#E6EBFF" opacity="1.000000" stroke="none" 
	d="
M434.287811,248.017517 
	C434.080292,247.789978 434.213623,247.515503 434.628632,247.151489 
	C434.723969,247.319901 434.630096,247.622787 434.287811,248.017517 
z"/>
<path fill="#E8EFFF" opacity="1.000000" stroke="none" 
	d="
M124.981987,454.309601 
	C125.215347,454.101227 125.487396,454.234497 125.848404,454.643799 
	C125.674583,454.742950 125.369026,454.653412 124.981987,454.309601 
z"/>
<path fill="#E8EFFF" opacity="1.000000" stroke="none" 
	d="
M345.906952,264.721802 
	C345.560791,264.850983 345.340973,264.633270 345.131195,264.111816 
	C345.361725,264.074615 345.659088,264.263580 345.906952,264.721802 
z"/>
<path fill="#E8EFFF" opacity="1.000000" stroke="none" 
	d="
M346.882324,268.719666 
	C346.545074,268.840820 346.327240,268.620514 346.111145,268.102844 
	C346.335419,268.069305 346.631714,268.260193 346.882324,268.719666 
z"/>
<path fill="#E6EBFF" opacity="1.000000" stroke="none" 
	d="
M307.096497,307.282776 
	C307.445709,307.158051 307.667297,307.382935 307.880096,307.914459 
	C307.648041,307.948486 307.347260,307.752228 307.096497,307.282776 
z"/>
<path fill="#000000" opacity="1.000000" stroke="none" 
	d="
M190.094254,388.522491 
	C184.299469,391.939941 178.164520,393.310730 171.418488,394.089539 
	C167.790268,394.444946 164.586578,394.877930 161.373077,394.970917 
	C152.293808,395.233704 143.950821,392.076843 135.558060,389.189606 
	C133.321976,388.420349 131.059494,387.727844 128.428833,386.936310 
	C126.959839,385.994354 126.003670,384.702667 124.761154,384.304504 
	C116.153786,381.545929 109.387901,375.992950 102.325592,369.771301 
	C101.278580,369.191772 100.667488,369.032532 100.056404,368.873260 
	C100.056404,368.873260 100.032417,368.954834 99.988251,368.685059 
	C99.632675,368.328491 99.321259,368.241669 99.009842,368.154846 
	C97.279243,366.434174 95.548645,364.713501 93.466049,362.975311 
	C90.751114,359.691711 87.980240,356.642548 86.106071,353.116699 
	C81.519615,344.488342 77.117607,335.742920 73.118271,326.830597 
	C71.450775,323.114716 70.995392,318.854889 69.915436,314.420990 
	C69.231148,304.592255 68.187668,295.188843 68.103218,285.776794 
	C67.947273,268.395996 74.232185,252.796982 82.599380,237.916122 
	C91.830833,221.498215 105.504272,209.534119 122.199478,201.619583 
	C134.224152,195.919189 147.287064,192.520996 161.470245,194.046234 
	C161.932114,194.087585 161.960938,194.027222 162.012390,194.297180 
	C162.367966,194.643768 162.672119,194.720413 162.976257,194.797058 
	C169.941360,193.397339 174.739288,198.216660 179.684387,201.417984 
	C187.288925,206.340973 191.833420,214.007401 194.607590,222.960800 
	C196.315842,228.180145 197.680481,233.236801 199.041916,238.294312 
	C201.024902,245.660889 203.002533,253.028900 204.988205,260.394745 
	C206.728088,266.848694 208.475937,273.300537 210.586304,279.939209 
	C213.969055,293.141998 216.985779,306.158844 220.084717,319.587219 
	C220.445892,322.393982 220.724869,324.789185 220.999207,328.000488 
	C221.384872,330.877350 221.775177,332.938080 222.165482,334.998840 
	C222.106201,337.029083 222.046936,339.059296 221.567474,341.708740 
	C221.150787,344.214966 221.154282,346.101990 221.157776,347.989044 
	C221.100983,349.047394 221.044189,350.105743 220.922699,351.557404 
	C218.912460,361.003235 213.726532,368.400909 208.053528,375.946594 
	C207.263977,376.331543 207.071320,376.624603 206.878677,376.917694 
	C206.878677,376.917694 206.968826,376.964752 206.692520,377.001892 
	C206.235291,377.333954 206.054367,377.628876 205.873428,377.923767 
	C205.873428,377.923767 205.961105,377.961334 205.688629,378.000244 
	C205.235245,378.334015 205.054337,378.628906 204.873413,378.923798 
	C204.873413,378.923798 204.960327,378.959564 204.685577,379.001160 
	C204.224487,379.341461 204.038147,379.640198 203.851807,379.938904 
	C199.316345,382.691925 194.780869,385.444946 190.094254,388.522491 
z"/>
<path fill="#E6EBFF" opacity="1.000000" stroke="none" 
	d="
M341.643127,252.240662 
	C341.783356,252.454681 341.632050,252.676361 341.191101,252.914688 
	C341.075470,252.721710 341.225494,252.494034 341.643127,252.240662 
z"/>
<path fill="#E6EBFF" opacity="1.000000" stroke="none" 
	d="
M262.358063,339.948730 
	C263.755890,339.285187 265.139740,338.983643 266.523621,338.682129 
	C266.456390,339.440094 266.389160,340.198059 266.321899,340.956024 
	C264.995972,340.740936 263.670013,340.525818 262.358063,339.948730 
z"/>
<path fill="#E6EBFF" opacity="1.000000" stroke="none" 
	d="
M226.406082,365.954712 
	C226.794800,365.717834 227.181320,365.719696 227.565689,365.749512 
	C227.576462,365.750366 227.564041,366.049927 227.562439,366.210205 
	C227.176147,366.205933 226.789871,366.201630 226.406082,365.954712 
z"/>
<path fill="#E6EBFF" opacity="1.000000" stroke="none" 
	d="
M204.098145,379.838623 
	C204.038147,379.640198 204.224487,379.341461 204.667908,378.957642 
	C204.731476,379.161133 204.537979,379.449738 204.098145,379.838623 
z"/>
<path fill="#E6EBFF" opacity="1.000000" stroke="none" 
	d="
M205.116516,378.826721 
	C205.054337,378.628906 205.235245,378.334015 205.669830,377.956390 
	C205.735550,378.158966 205.547577,378.444305 205.116516,378.826721 
z"/>
<path fill="#E6EBFF" opacity="1.000000" stroke="none" 
	d="
M206.116547,377.826691 
	C206.054367,377.628876 206.235291,377.333954 206.669922,376.956360 
	C206.735641,377.158966 206.547653,377.444305 206.116547,377.826691 
z"/>
<path fill="#E6EBFF" opacity="1.000000" stroke="none" 
	d="
M207.105698,376.857117 
	C207.071320,376.624603 207.263977,376.331543 207.723389,376.092346 
	C207.848724,376.441559 207.629578,376.658325 207.105698,376.857117 
z"/>
<path fill="#E8EFFF" opacity="1.000000" stroke="none" 
	d="
M222.509186,334.916046 
	C221.775177,332.938080 221.384872,330.877350 221.071381,328.414185 
	C222.725510,330.033417 225.870987,331.663208 222.509186,334.916046 
z"/>
<path fill="#E8EFFF" opacity="1.000000" stroke="none" 
	d="
M221.446243,347.808960 
	C221.154282,346.101990 221.150787,344.214966 221.504669,342.139893 
	C226.228378,343.943146 222.549332,345.753906 221.446243,347.808960 
z"/>
<path fill="#F3FAFF" opacity="1.000000" stroke="none" 
	d="
M162.841858,194.616150 
	C162.672119,194.720413 162.367966,194.643768 161.982452,194.312073 
	C162.209320,194.098953 162.478104,194.225037 162.841858,194.616150 
z"/>
<path fill="#E2E2FF" opacity="1.000000" stroke="none" 
	d="
M379.131470,369.136627 
	C377.949097,368.984436 377.027527,368.571960 376.105957,368.159485 
	C376.791779,367.475128 377.477600,366.790741 378.163452,366.106323 
	C378.573029,367.029663 378.982635,367.953003 379.131470,369.136627 
z"/>
<path fill="#EFF7FF" opacity="1.000000" stroke="none" 
	d="
M100.213966,369.147156 
	C100.667488,369.032532 101.278580,369.191772 102.012634,369.649658 
	C101.547577,369.772552 100.959557,369.596802 100.213966,369.147156 
z"/>
<path fill="#EFF7FF" opacity="1.000000" stroke="none" 
	d="
M99.144890,368.345642 
	C99.321259,368.241669 99.632675,368.328491 100.029022,368.673035 
	C99.792908,368.890350 99.514900,368.758911 99.144890,368.345642 
z"/>
</svg>